<svg width="26" height="26" viewBox="0 0 26 26" fill="none" xmlns="http://www.w3.org/2000/svg">
<path d="M12.9942 25C19.5713 25 25 19.5687 25 13C25 6.43133 19.5597 1 12.9826 1C6.41711 1 1 6.43133 1 13C1 19.5687 6.42871 25 12.9942 25ZM12.9942 17.0155C9.72305 17.0155 7.1827 18.1876 5.95312 19.5338C4.37554 17.8279 3.41276 15.53 3.41276 13C3.41276 7.67311 7.66989 3.40232 12.9826 3.40232C18.3069 3.40232 22.5872 7.67311 22.5988 13C22.5988 15.53 21.6361 17.8279 20.0469 19.5455C18.8173 18.1876 16.2769 17.0155 12.9942 17.0155ZM12.9942 15.1122C15.2446 15.1354 16.9961 13.2089 16.9961 10.7253C16.9961 8.38104 15.233 6.41973 12.9942 6.41973C10.767 6.41973 8.99227 8.38104 9.00387 10.7253C9.01547 13.2089 10.7554 15.1006 12.9942 15.1122Z" fill="#00BBD7"/>
</svg>
