<svg width="88" height="33" viewBox="0 0 88 33" fill="none" xmlns="http://www.w3.org/2000/svg">
<g filter="url(#filter0_i_2_261)">
<path d="M0.568852 0.933044H0V1.74391H0.568852V0.933044Z" fill="white"/>
<path d="M3.25121 0.25116H2.22827V1.2741H3.25121V0.25116Z" fill="white"/>
<path d="M2.73929 1.74475H1.26892V3.4039H2.73929V1.74475Z" fill="white"/>
<path d="M5.25648 0.693481H4.15454V1.79542H5.25648V0.693481Z" fill="white"/>
<path d="M6.99958 0.435791H6.32178V1.11359H6.99958V0.435791Z" fill="white"/>
<path d="M5.25598 2.95239H3.74902V4.45935H5.25598V2.95239Z" fill="white"/>
<path d="M4.24486 5.42322H2.73956V6.92851H4.24486V5.42322Z" fill="white"/>
<path d="M6.65975 5.0174H5.18689V6.49026H6.65975V5.0174Z" fill="white"/>
<path d="M7.63948 2.70367H5.96204V4.21562H7.63948V2.70367Z" fill="white"/>
<path d="M8.96736 1.4729H7.05872V2.98901H8.96736V1.4729Z" fill="white"/>
<path d="M8.45879 3.755H7.26038V5.16466H8.45879V3.755Z" fill="white"/>
<path d="M8.25606 6.02209H6.26508V8.11454H8.25606V6.02209Z" fill="white"/>
<path d="M6.43039 8.6958H5.64697V9.55324H6.43039V8.6958Z" fill="white"/>
<path d="M8.96728 8.45624H7.1601V10.2634H8.96728V8.45624Z" fill="white"/>
<path d="M10.4717 5.42322H8.96643V6.92851H10.4717V5.42322Z" fill="white"/>
<path d="M11.3919 4.00372H10.0272V5.90239H11.3919V4.00372Z" fill="white"/>
<path d="M10.229 3.21936H9.23352V4.21485H10.229V3.21936Z" fill="white"/>
<path d="M12.6517 2.44507H11.3909V3.70586H12.6517V2.44507Z" fill="white"/>
<path d="M14.3958 0.961365H12.4048V2.95235H14.3958V0.961365Z" fill="white"/>
<path d="M11.2535 0.693481H10.0642V1.79542H11.2535V0.693481Z" fill="white"/>
<path d="M11.8519 0H10.7641V0.887374H11.8519V0Z" fill="white"/>
<path d="M16.1476 0.25116H14.9949V1.47702H16.1476V0.25116Z" fill="white"/>
<path d="M10.6635 10.8663H9.19318V12.3366H10.6635V10.8663Z" fill="white"/>
<path d="M14.35 4.67645H12.4048V6.62169H14.35V4.67645Z" fill="white"/>
<path d="M16.6359 2.44507H14.8936V4.00276H16.6359V2.44507Z" fill="white"/>
<path d="M16.9594 5.42322H14.7006V6.48358H16.9594V5.42322Z" fill="white"/>
<path d="M22.3436 1.47699V9.1199L27.9165 13.2399L32.1613 14.0566L22.3436 1.47699Z" fill="white"/>
<path d="M22.2597 9.55322L27.5557 13.531L28.9387 16.2414H24.1259L22.2597 9.55322Z" fill="white"/>
<path d="M12.9629 15.4255L24.0164 16.2696L22.1493 9.60309L12.9629 15.4255Z" fill="white"/>
<path d="M24.4988 16.4068L28.7453 16.4076L25.3297 19.2136L24.4988 16.4068Z" fill="white"/>
<path d="M29.1003 16.4992L25.3437 19.6287L29.8662 21.979L29.9444 19.1547L29.1003 16.4992Z" fill="white"/>
<path d="M24.1959 16.5167L22.0253 22.6293L22.7713 23.1824L25.0817 19.6004L24.1959 16.5167Z" fill="white"/>
<path d="M25.2613 19.7668L22.9933 23.2381L29.7015 22.0763L25.2613 19.7668Z" fill="white"/>
<path d="M24.3342 23.8036V30.8011L26.173 29.1977L24.3342 23.8036Z" fill="white"/>
<path d="M23.8924 23.4858V31.355L22.3156 33L20.6016 30.9674L22.8828 23.6522L23.8924 23.4858Z" fill="white"/>
<path d="M21.8457 22.809L22.7306 23.4585L20.4493 30.8585L18.6513 28.0775L21.8457 22.809Z" fill="white"/>
<path d="M30.3082 18.9643L30.2167 21.6754L34.8989 17.3059V15.231L30.3082 18.9643Z" fill="white"/>
<path d="M30.1413 18.6191L29.4361 16.421L32.5615 14.4824L34.6023 15.0737L30.1413 18.6191Z" fill="white"/>
<path d="M35.2161 15.0513V17.1396L39.8767 15.3474L38.0379 14.416L35.2161 15.0513Z" fill="white"/>
<path d="M39.0368 12.4523L38.3557 14.2462L40.0273 15.1028L40.4922 14.6354L39.0368 12.4523Z" fill="white"/>
<path d="M39.8775 13.2224L40.5886 14.2952L41.0177 14.0873L39.8775 13.2224Z" fill="white"/>
<path d="M39.1635 12.3966L41.1453 13.8503H41.6609V13.4062L39.877 11.7745L39.1635 12.3966Z" fill="white"/>
<path d="M41.1628 14.1946H41.9229L42.1175 16.3237L41.9046 16.3503L41.1628 14.1946Z" fill="white"/>
<path d="M40.5327 15.0005L40.9793 14.6487L41.5681 16.2022L40.5327 15.0005Z" fill="white"/>
<path d="M32.4383 14.1397L33.1851 12.3966L31.1509 12.3958" fill="white"/>
<path d="M30.9714 12.1205H33.1977V10.5304L30.1414 11.1941L30.9714 12.1205Z" fill="white"/>
<path d="M33.571 10.5304V12.2037L38.7839 12.227L39.4758 11.6648L33.571 10.5304Z" fill="white"/>
<path d="M33.4886 12.3967L32.6586 14.347L34.8857 14.9L38.0394 14.1665L38.7163 12.3967H33.4886Z" fill="white"/>
<path d="M28.0211 13.6084L29.3759 16.209L32.2443 14.4434L28.0211 13.6084Z" fill="white"/>
<path d="M22.0674 9.35937L14.6657 6.92761L14.6748 7.41413H13.4015V8.91693H14.3047V9.55315H12.3503V8.91693H11.1794V8.16096H12.0792V6.92761H10.9399V7.85075H9.66742V9.3627H10.7095V10.3307H11.6634V11.4002H12.4119V10.6351H13.3849V11.6015H12.91V12.8623H10.4234V13.8669H11.2135L12.5067 15.3789L22.0674 9.35937ZM17.0775 8.6034H18.7008V9.9565H17.075L17.0775 8.6034ZM16.2125 11.876H15.1389V12.5912H14.0211V11.6015H14.664V10.3274H16.2125V11.876Z" fill="white"/>
<path d="M16.4105 1.47699V2.44504H14.8936V4.00356H16.4379V5.42319H14.7006V6.64905L22.0658 9.03673V1.47699H16.4105ZM17.3852 2.50991H18.4289V3.50789H17.3852V2.50991ZM20.6037 5.18201H19.8053V6.18H18.2327V4.67636H19.3462V3.92039H20.6079L20.6037 5.18201Z" fill="white"/>
<path d="M41.9379 16.4617L42.1176 16.4384L42.0677 16.8559L41.9379 16.4617Z" fill="white"/>
<path d="M42.3706 27.9768H37.3174L36.2803 29.6543H34.405L38.6464 22.9096C38.767 22.7113 38.9232 22.5371 39.1071 22.3956C39.2851 22.2598 39.5421 22.1918 39.8781 22.1918C40.2058 22.1918 40.4591 22.2598 40.6382 22.3956C40.8219 22.5371 40.9778 22.7114 41.0981 22.9096L45.3171 29.6543H43.4326L42.3706 27.9768ZM38.0776 26.721H41.6104L39.844 23.841L38.0776 26.721Z" fill="white"/>
<path d="M49.2538 29.6543C48.804 29.6636 48.3547 29.6187 47.9157 29.5204C47.5987 29.4519 47.3041 29.3046 47.0591 29.0921C46.8376 28.8834 46.6798 28.616 46.6041 28.3212C46.5071 27.9384 46.4621 27.5442 46.4702 27.1494V22.3524H48.0895V27.0854C48.0855 27.2674 48.1054 27.4491 48.1485 27.6259C48.183 27.7641 48.2552 27.89 48.3573 27.9894C48.4705 28.0931 48.609 28.1651 48.759 28.1981C48.9678 28.2458 49.1818 28.2676 49.396 28.263H53.7314V29.6543H49.2538Z" fill="white"/>
<path d="M57.0917 27.5669V29.6543H55.4641V22.3524H61.3123C61.751 22.3445 62.1893 22.3858 62.6188 22.4755C62.9302 22.5389 63.2209 22.679 63.4646 22.883C63.683 23.0789 63.8409 23.3331 63.9195 23.6157C64.0158 23.9717 64.0609 24.3397 64.0534 24.7085V25.3397C64.0622 25.7044 64.0188 26.0685 63.9245 26.4208C63.8502 26.6894 63.6951 26.9286 63.4804 27.1061C63.234 27.2933 62.9452 27.4167 62.6396 27.4654C62.2002 27.5403 61.7547 27.5743 61.309 27.5669H57.0917ZM62.4234 24.7725C62.4234 24.38 62.3402 24.1122 62.1739 23.9691C62.0076 23.8261 61.7062 23.7548 61.2699 23.7554H57.0917V26.2504H61.2882C61.7162 26.2504 62.0126 26.1844 62.1772 26.0524C62.3436 25.921 62.4267 25.6616 62.4267 25.2765L62.4234 24.7725Z" fill="white"/>
<path d="M72.9366 29.6543V26.7436H67.5832V29.6543H65.9557V22.3524H67.5832V25.3289H72.9366V22.3524H74.5533V29.6543H72.9366Z" fill="white"/>
<path d="M84.125 27.9768H79.071L78.0331 29.6576H76.1594L80.4009 22.9128C80.5212 22.7147 80.6771 22.5404 80.8608 22.3989C81.0398 22.263 81.2968 22.1951 81.6317 22.1951C81.9666 22.1951 82.22 22.263 82.3918 22.3989C82.5757 22.5404 82.7319 22.7146 82.8526 22.9128L87.0707 29.6576H85.1862L84.125 27.9768ZM79.8312 26.721H83.3649L81.5984 23.841L79.8312 26.721Z" fill="white"/>
</g>
<defs>
<filter id="filter0_i_2_261" x="0" y="0" width="88.0707" height="33.9999" filterUnits="userSpaceOnUse" color-interpolation-filters="sRGB">
<feFlood flood-opacity="0" result="BackgroundImageFix"/>
<feBlend mode="normal" in="SourceGraphic" in2="BackgroundImageFix" result="shape"/>
<feColorMatrix in="SourceAlpha" type="matrix" values="0 0 0 0 0 0 0 0 0 0 0 0 0 0 0 0 0 0 127 0" result="hardAlpha"/>
<feOffset dx="1" dy="1"/>
<feGaussianBlur stdDeviation="1"/>
<feComposite in2="hardAlpha" operator="arithmetic" k2="-1" k3="1"/>
<feColorMatrix type="matrix" values="0 0 0 0 0 0 0 0 0 0 0 0 0 0 0 0 0 0 0.25 0"/>
<feBlend mode="normal" in2="shape" result="effect1_innerShadow_2_261"/>
</filter>
</defs>
</svg>
