<svg width="18" height="18" viewBox="0 0 18 18" fill="none" xmlns="http://www.w3.org/2000/svg">
<path fill-rule="evenodd" clip-rule="evenodd" d="M5.06501 1.96875H4.60011V2.26469H4.30117V2.73426H4.80943V2.34688H5.06501V1.96875ZM0.952423 2.07581H1.3896V2.51171H0.952423V2.07581ZM0 2.3663H0.243111V2.71183H0V2.3663ZM1.17094 2.71234H0.542545V3.41934H1.17094V2.71234ZM1.77598 2.26469H2.24692V2.73426H1.77598V2.26469ZM2.99111 2.15479H2.70144V2.44362H2.99111V2.15479ZM1.60246 3.22665H2.24649V3.86881H1.60246V3.22665ZM1.81393 4.27992H1.17061V4.92137H1.81393V4.27992ZM2.21662 4.10619H2.84608V4.53536H3.52834V5.42701H2.67745V4.73382H2.21662V4.10619ZM3.01619 3.1209H2.54787V3.76518H3.10301V4.16995H3.61518V3.56926H3.26477V3.24162H3.83189V2.59557H3.01619V3.1209ZM2.74847 5.67449H2.41366V6.03986H2.74847V5.67449ZM3.05965 5.57217H3.832V6.34226H3.05965V5.57217ZM4.28549 4.27992H3.83226V4.92137H4.47558V4.48349H4.86874V3.67442H4.37196V3.34058H3.94652V3.76478H4.28549V4.27992ZM4.86794 3.01112H5.30181V2.37874H6.1527V3.22714H5.40677V3.54838H4.86794V3.01112ZM6.40852 2.07581H6.90114V2.59817H6.40852V2.07581ZM4.55709 6.59867H3.9287V7.22523H4.55709V6.59867ZM5.30181 3.96136H6.13315V4.79028H5.30181V3.96136ZM6.36505 3.01112H6.36555V3.01092H7.01385V2.59841H9.43075V5.81981L6.28309 4.80236V4.73177V4.27999V4.27992H7.02558V3.67505H6.36555V3.67489H6.36505V3.01112ZM9.5487 2.59841V5.85525L11.9304 7.6109L13.7445 7.95891L9.5487 2.59841ZM11.7769 7.73475L9.51354 6.03971L10.3111 8.88971H12.368L11.7769 7.73475ZM5.54006 8.54139L10.264 8.9011L9.4661 6.06031L5.54006 8.54139ZM12.2849 8.96041L10.4701 8.96005L10.8252 10.1561L12.2849 8.96041ZM12.437 8.99914L10.8315 10.3327L12.7643 11.3342L12.7978 10.1307L12.437 8.99914ZM9.41294 11.6121L10.3406 9.00731L10.7191 10.3214L9.73176 11.8477L9.41294 11.6121ZM10.7954 10.3923L9.82615 11.8715L12.693 11.3764L10.7954 10.3923ZM10.3998 15.0934V12.1116L11.1857 14.4101L10.3998 15.0934ZM10.2107 11.977V15.3303L9.53678 16.0312L8.80424 15.1651L9.77918 12.0479L10.2107 11.977ZM9.71443 11.9655L9.33626 11.6887L7.97107 13.9337L8.7395 15.1188L9.71443 11.9655ZM12.9523 10.0496L12.9132 11.2049L14.9143 9.34297V8.45876L12.9523 10.0496ZM12.58 8.96617L12.8814 9.90282L14.7879 8.39205L13.9157 8.14008L12.58 8.96617ZM15.0509 8.38277V9.27264L17.0427 8.50893L16.2568 8.11202L15.0509 8.38277ZM16.3924 8.03941L16.6835 7.27499L17.3055 8.20527L17.1068 8.40443L16.3924 8.03941ZM17.0423 7.60386L17.3462 8.06102L17.5296 7.97242L17.0423 7.60386ZM17.5843 7.8713L16.7373 7.25183L17.0423 6.98675L17.8046 7.68206V7.8713H17.5843ZM17.5919 8.01728H17.9167L17.9999 8.92451L17.9089 8.93585L17.5919 8.01728ZM17.5136 8.2109L17.3227 8.36081L17.7652 8.8729L17.5136 8.2109ZM13.8629 7.99423L14.182 7.25143L13.3127 7.25107L13.8629 7.99423ZM14.1878 7.13415H13.2364L12.8816 6.73937L14.1878 6.45656V7.13415ZM14.347 6.45656V7.16959L16.5748 7.17952L16.8706 6.93995L14.347 6.45656ZM13.9572 8.08211L14.3119 7.25107H16.5462L16.2568 8.00521L14.9091 8.31778L13.9572 8.08211ZM11.9761 7.76811L12.5551 8.87629L13.781 8.12392L11.9761 7.76811ZM6.2672 4.9206L9.43049 5.95683L5.34451 8.5219L4.79182 7.87762H4.45417V7.44952H5.51689V6.91227H5.71984V6.50047H5.30399V6.8265H4.98411V6.37076H4.57644V5.95825H4.13109V5.31397H4.67489V4.9206H5.16182V5.44616H4.77725V5.7683H5.27769V6.0394H6.11294V5.7683H5.72695V5.12792H6.27111L6.2672 4.9206ZM7.99172 5.63469H7.29793L7.29687 6.21128H7.99172V5.63469ZM6.46943 7.02921H6.92829V6.36934H6.26649V6.91227H5.99174V7.33399H6.46943V7.02921ZM7.43041 3.03856H7.87647V3.46383H7.43041V3.03856ZM8.80591 4.17722H8.4647V4.60249H7.79259V3.96175H8.2685V3.63961H8.80768L8.80591 4.17722ZM18 8.97367L17.9232 8.9836L17.9787 9.15158L18 8.97367Z" fill="#00BBD7"/>
</svg>
