<svg width="40" height="40" viewBox="0 0 40 40" fill="none" xmlns="http://www.w3.org/2000/svg">
<path d="M34.3146 0H5.70227C1.98486 0 0 1.92559 0 5.57756V7.03835H40V5.57756C40 1.92559 38.032 0 34.3146 0ZM5.70227 29H34.3146C38.032 29 40 27.0578 40 23.4224V11.0057H0V23.4224C0 27.0744 1.98486 29 5.70227 29Z" fill="#828282" fill-opacity="0.85"/>
<g filter="url(#filter0_b_2_849)">
<rect x="8" y="18" width="24" height="22" rx="11" fill="white" fill-opacity="0.7"/>
<path d="M12.8955 30.521H17.6196V28.895H12.8955V30.521ZM22.8711 35.062H23.6621V33.8315C25.6396 33.7144 27.1118 32.6597 27.1118 30.8433V30.8286C27.1118 29.2612 26.0938 28.4482 24.1089 28.0015L23.6621 27.9062V25.0718C24.5703 25.1816 25.1636 25.6797 25.2734 26.478L25.2808 26.5439H26.9873L26.98 26.4268C26.8481 24.7861 25.5591 23.7314 23.6621 23.5996V22.3691H22.8711V23.5996C20.9155 23.7241 19.5605 24.8374 19.5605 26.5V26.5146C19.5605 28.0308 20.5566 28.9023 22.4609 29.3271L22.8711 29.415V32.3667C21.7358 32.2495 21.2231 31.6855 21.0913 30.9531L21.0767 30.8726H19.3701L19.3774 30.9751C19.4946 32.667 20.9082 33.7144 22.8711 33.8315V35.062ZM21.3257 26.3828V26.3755C21.3257 25.7456 21.853 25.1743 22.8711 25.0645V27.7305C21.7505 27.4741 21.3257 27.0273 21.3257 26.3828ZM25.354 30.9897V31.0044C25.354 31.7295 24.856 32.2861 23.6621 32.374V29.5908C24.9731 29.8911 25.354 30.3013 25.354 30.9897Z" fill="#828282" fill-opacity="0.85"/>
</g>
<defs>
<filter id="filter0_b_2_849" x="-12" y="-2" width="64" height="62" filterUnits="userSpaceOnUse" color-interpolation-filters="sRGB">
<feFlood flood-opacity="0" result="BackgroundImageFix"/>
<feGaussianBlur in="BackgroundImageFix" stdDeviation="10"/>
<feComposite in2="SourceAlpha" operator="in" result="effect1_backgroundBlur_2_849"/>
<feBlend mode="normal" in="SourceGraphic" in2="effect1_backgroundBlur_2_849" result="shape"/>
</filter>
</defs>
</svg>
