<svg width="26" height="26" viewBox="0 0 26 26" fill="none" xmlns="http://www.w3.org/2000/svg">
<path d="M13.7447 9.1806V4.5H21.2309C23.3684 4.5 24.5 5.62879 24.5 7.76961V12.674H17.3717C18.4937 12.0804 19.2384 11.0684 19.2384 9.86176C19.2384 8.39239 18.1358 7.27333 16.656 7.27333C15.447 7.27333 14.3831 7.99342 13.7447 9.1806ZM1.5 12.674V7.76961C1.5 5.62879 2.6413 4.5 4.77881 4.5H12.2649V9.1806C11.6266 7.99342 10.5723 7.27333 9.36333 7.27333C7.87384 7.27333 6.78091 8.39239 6.78091 9.86176C6.78091 11.0684 7.52565 12.0804 8.63793 12.674H1.5ZM11.8297 12.5572C10.0017 12.5572 8.44449 11.263 8.44449 10.0758C8.44449 9.39468 8.87006 8.96651 9.53743 8.96651C10.9012 8.96651 12.0908 10.5332 12.0908 12.2945V12.5572H11.8297ZM14.1897 12.5572H13.9285V12.2945C13.9285 10.5332 15.1182 8.96651 16.4819 8.96651C17.1493 8.96651 17.5749 9.39468 17.5749 10.0758C17.5749 11.263 16.0177 12.5572 14.1897 12.5572ZM24.5 18.2304C24.5 20.3615 23.3684 21.5 21.2309 21.5H13.7447V14.9803H13.8124C14.4895 16.9848 16.6657 18.6488 18.1939 18.8921C18.9096 18.9991 19.3255 18.4737 19.3255 17.9385C19.3255 17.3838 18.9773 17.014 18.368 16.907C17.0719 16.7124 15.36 15.1554 14.799 14.0461H24.5V18.2304ZM4.77881 21.5C2.6413 21.5 1.5 20.3712 1.5 18.2304V14.0461H11.2204C10.6497 15.1554 8.94743 16.7026 7.65139 16.907C7.03238 17.0238 6.69386 17.3838 6.69386 17.9385C6.69386 18.4737 7.10976 18.9991 7.82548 18.8921C9.34399 18.6488 11.5202 16.9848 12.1972 14.9803H12.2649V21.5H4.77881Z" fill="#757575"/>
</svg>
