<svg width="60" height="20" viewBox="0 0 60 20" fill="none" xmlns="http://www.w3.org/2000/svg">
<g filter="url(#filter0_i_2_555)">
<path d="M22.78 0.356084L14.925 19.6981H9.8L5.935 4.2601C5.7 3.31054 5.4975 2.9622 4.7825 2.56225C3.6175 1.90943 1.6925 1.2979 0 0.916012L0.115 0.356084H8.365C8.90412 0.355526 9.42567 0.553903 9.83552 0.915404C10.2454 1.27691 10.5165 1.77772 10.6 2.32744L12.6425 13.5208L17.6875 0.356084H22.78ZM42.8625 13.3841C42.8825 8.27764 36.0225 7.99639 36.07 5.71539C36.085 5.02129 36.725 4.28332 38.125 4.09496C39.7657 3.93413 41.4181 4.23367 42.9075 4.96194L43.7575 0.859244C42.3074 0.296595 40.7717 0.00561635 39.2225 0C34.43 0 31.0575 2.63192 31.0275 6.39659C30.9975 9.18075 33.435 10.7315 35.2725 11.6604C37.1625 12.6074 37.7975 13.2164 37.7875 14.0627C37.775 15.3632 36.2825 15.9334 34.8875 15.9566C32.45 15.9954 31.0375 15.278 29.9075 14.7362L29.03 18.973C30.1625 19.5097 32.2525 19.9794 34.42 20C39.5125 20 42.845 17.4042 42.8625 13.3841ZM55.515 19.6981H60L56.0875 0.356084H51.9475C51.5051 0.351853 51.0718 0.48489 50.7036 0.73794C50.3354 0.990991 50.0493 1.35238 49.8825 1.77526L42.61 19.6981H47.7L48.7125 16.8082H54.9325L55.515 19.6981ZM50.1075 12.8448L52.6575 5.58122L54.1275 12.8448H50.1075ZM29.7075 0.356084L25.7 19.6981H20.85L24.8625 0.356084H29.7075Z" fill="white"/>
</g>
<defs>
<filter id="filter0_i_2_555" x="0" y="0" width="61" height="21" filterUnits="userSpaceOnUse" color-interpolation-filters="sRGB">
<feFlood flood-opacity="0" result="BackgroundImageFix"/>
<feBlend mode="normal" in="SourceGraphic" in2="BackgroundImageFix" result="shape"/>
<feColorMatrix in="SourceAlpha" type="matrix" values="0 0 0 0 0 0 0 0 0 0 0 0 0 0 0 0 0 0 127 0" result="hardAlpha"/>
<feOffset dx="1" dy="1"/>
<feGaussianBlur stdDeviation="1"/>
<feComposite in2="hardAlpha" operator="arithmetic" k2="-1" k3="1"/>
<feColorMatrix type="matrix" values="0 0 0 0 0 0 0 0 0 0 0 0 0 0 0 0 0 0 0.25 0"/>
<feBlend mode="normal" in2="shape" result="effect1_innerShadow_2_555"/>
</filter>
</defs>
</svg>
